<?xml version="1.0" standalone="no"?>
<!DOCTYPE svg PUBLIC "-//W3C//DTD SVG 20010904//EN"
 "http://www.w3.org/TR/2001/REC-SVG-20010904/DTD/svg10.dtd">
<svg version="1.0" xmlns="http://www.w3.org/2000/svg"
 width="769.000000pt" height="769.000000pt" viewBox="0 0 769.000000 769.000000"
 preserveAspectRatio="xMidYMid meet">
<metadata>
Created by potrace 1.11, written by Peter Selinger 2001-2013
</metadata>
<g transform="translate(0.000000,769.000000) scale(0.100000,-0.100000)"
fill="#000000" stroke="none">
<path d="M3698 6345 c-2 -2 -32 -4 -68 -6 -36 -1 -71 -6 -77 -12 -9 -6 -13 -6
-13 1 0 7 -14 7 -42 0 -24 -6 -54 -11 -68 -13 -71 -9 -107 -18 -125 -33 -17
-15 -18 -15 -7 -1 11 15 8 15 -27 6 -22 -6 -38 -14 -36 -17 3 -4 -7 -5 -22 -2
-14 3 -24 1 -21 -4 3 -5 -12 -10 -34 -11 -23 0 -44 -7 -48 -13 -6 -9 -9 -9
-13 1 -4 10 -6 10 -6 2 -1 -7 -10 -13 -22 -13 -11 0 -17 -4 -14 -10 3 -5 0 -7
-8 -4 -7 2 -35 -4 -60 -15 -26 -11 -47 -18 -47 -14 0 3 -6 0 -13 -6 -8 -6 -17
-8 -20 -4 -4 3 -7 2 -7 -4 0 -6 -11 -14 -24 -17 -36 -9 -207 -91 -202 -97 3
-3 -5 -6 -17 -6 -12 -1 -23 -7 -25 -13 -2 -5 -8 -8 -13 -4 -5 3 -12 -2 -15
-10 -3 -9 -10 -14 -14 -11 -4 3 -19 -5 -34 -16 -14 -11 -26 -18 -26 -14 0 3
-10 -3 -22 -15 -12 -11 -26 -20 -31 -20 -4 0 -15 -6 -22 -12 -32 -29 -45 -38
-52 -38 -5 0 -19 -10 -33 -23 -14 -13 -33 -26 -42 -30 -10 -3 -18 -11 -18 -17
0 -6 -4 -8 -10 -5 -6 3 -10 3 -10 -2 0 -4 -18 -21 -40 -37 -21 -16 -36 -34
-33 -39 3 -6 1 -7 -5 -3 -6 4 -19 -2 -29 -14 -10 -11 -23 -20 -30 -20 -7 0
-12 -3 -11 -7 1 -5 -14 -24 -35 -45 -20 -20 -37 -33 -37 -30 0 3 -11 -9 -25
-28 -14 -19 -25 -30 -25 -25 0 5 -6 0 -14 -10 -8 -11 -12 -24 -9 -30 4 -5 3
-7 -1 -3 -10 9 -56 -32 -56 -49 0 -8 -4 -11 -10 -8 -5 3 -10 2 -10 -2 0 -5
-14 -24 -30 -43 -46 -53 -50 -58 -50 -69 0 -5 -7 -12 -16 -15 -9 -4 -14 -9
-11 -12 6 -6 -6 -24 -35 -52 -10 -9 -18 -22 -18 -29 0 -7 -4 -13 -9 -13 -5 0
-13 -10 -17 -22 -4 -13 -15 -30 -25 -39 -10 -9 -16 -19 -12 -23 3 -3 1 -6 -6
-6 -7 0 -10 -4 -7 -9 3 -5 -1 -14 -9 -21 -8 -7 -12 -16 -9 -21 3 -5 1 -9 -4
-9 -5 0 -15 -12 -22 -27 -8 -16 -22 -40 -32 -55 -14 -20 -15 -28 -6 -31 8 -3
6 -6 -5 -6 -10 -1 -16 -5 -13 -9 3 -5 -4 -23 -15 -41 -11 -18 -17 -36 -14 -41
3 -4 0 -10 -6 -12 -9 -3 -34 -58 -42 -93 -1 -5 -4 -12 -7 -15 -5 -5 -29 -66
-34 -85 -1 -5 -8 -27 -15 -47 -7 -21 -9 -43 -5 -49 5 -8 3 -9 -6 -4 -10 6 -12
4 -7 -8 4 -10 2 -17 -4 -17 -6 0 -9 -9 -6 -20 3 -10 0 -21 -5 -22 -6 -2 -12
-17 -14 -33 -2 -17 -11 -59 -19 -95 -9 -35 -15 -75 -12 -87 2 -12 0 -20 -4
-17 -5 3 -9 -1 -10 -8 0 -7 -2 -25 -4 -41 -3 -19 0 -25 8 -20 7 4 5 -1 -3 -11
-16 -20 -17 -29 -24 -159 -3 -48 -8 -92 -11 -97 -3 -6 0 -10 7 -10 8 0 9 -3 3
-8 -6 -4 -10 -42 -8 -92 1 -47 3 -113 4 -147 1 -38 5 -60 11 -57 6 4 5 -2 -1
-13 -6 -11 -8 -23 -5 -26 3 -3 8 -27 11 -54 3 -26 7 -57 8 -68 1 -11 3 -28 4
-38 1 -11 6 -16 14 -11 9 5 9 4 1 -5 -11 -12 -7 -71 5 -71 4 0 8 -10 8 -22 1
-20 8 -54 13 -68 1 -3 2 -8 1 -12 0 -4 4 -19 9 -33 10 -26 21 -71 22 -92 1 -7
4 -13 8 -13 3 0 6 -10 7 -22 1 -11 6 -24 10 -27 4 -3 8 -12 9 -18 3 -39 5 -44
13 -39 5 4 7 -2 4 -12 -2 -11 1 -25 9 -33 7 -8 15 -23 16 -34 2 -11 7 -22 10
-25 4 -3 8 -14 10 -24 2 -10 10 -25 18 -33 17 -17 19 -27 3 -17 -6 3 -3 -5 6
-20 10 -14 14 -26 10 -26 -3 0 1 -7 9 -16 9 -8 16 -22 16 -30 0 -8 4 -14 10
-14 5 0 9 -3 8 -7 -4 -17 26 -62 36 -56 6 3 8 3 4 -1 -10 -12 13 -67 25 -59 6
4 7 1 2 -7 -4 -7 -3 -15 2 -19 5 -3 21 -27 36 -53 15 -26 34 -53 42 -62 9 -8
16 -18 15 -21 -1 -21 1 -25 10 -20 6 3 10 -1 10 -9 0 -9 5 -16 11 -16 5 0 7
-4 4 -10 -3 -6 1 -10 9 -10 9 0 16 -6 16 -13 0 -7 9 -23 20 -35 11 -12 20 -25
20 -29 0 -4 12 -19 25 -32 14 -13 25 -27 25 -33 0 -5 5 -6 10 -3 5 3 10 2 10
-4 0 -6 18 -28 39 -50 21 -22 45 -48 53 -58 7 -11 24 -27 38 -36 13 -9 20 -17
15 -17 -5 0 2 -8 15 -17 14 -10 29 -17 33 -15 5 1 6 -2 3 -7 -3 -5 1 -14 9
-21 8 -7 15 -9 16 -4 0 5 4 1 8 -9 4 -10 10 -19 13 -19 4 0 25 -17 48 -39 23
-22 46 -37 51 -33 5 3 8 2 7 -3 -2 -4 0 -9 5 -10 4 -2 15 -11 25 -20 10 -10
31 -27 46 -38 16 -11 37 -27 47 -37 9 -9 20 -14 23 -11 3 4 6 1 6 -5 0 -7 7
-12 15 -12 8 0 15 -5 15 -11 0 -5 4 -8 9 -5 5 4 11 2 13 -3 1 -5 10 -11 18
-13 8 -2 25 -13 39 -25 14 -12 28 -20 33 -17 4 3 8 0 8 -6 0 -6 4 -9 9 -6 5 4
11 2 13 -2 6 -14 170 -92 181 -85 6 3 7 1 3 -5 -4 -7 -4 -12 1 -13 19 -2 40
-8 73 -22 19 -8 37 -15 40 -14 3 0 16 -6 30 -13 14 -8 28 -14 32 -15 3 0 10
-3 14 -8 4 -4 16 -7 26 -7 10 0 18 -5 18 -11 0 -8 4 -8 14 0 10 8 15 9 18 1 2
-6 12 -13 23 -15 11 -2 20 -4 20 -5 0 -3 39 -11 62 -13 13 -1 23 -5 23 -8 0
-3 6 -6 13 -7 6 0 22 -3 35 -6 43 -11 67 -17 92 -21 14 -2 44 -8 68 -13 23 -5
42 -8 42 -6 0 3 9 0 20 -6 15 -8 20 -8 20 1 0 8 4 9 13 0 8 -6 46 -12 85 -13
40 -2 72 -5 72 -8 0 -3 63 -5 140 -5 77 -1 140 3 140 7 0 5 8 4 19 -1 10 -6
21 -7 25 -4 3 4 30 8 59 9 28 1 70 5 92 9 22 4 59 7 82 8 24 1 43 5 43 9 0 4
12 6 28 4 15 -1 32 1 38 6 7 5 27 10 45 12 52 5 89 17 89 28 0 6 6 6 14 -1 10
-8 16 -9 21 -1 3 6 11 8 16 5 5 -4 9 -1 9 5 0 6 4 9 9 5 5 -3 12 -1 15 3 3 5
17 8 31 7 14 -2 25 1 25 6 0 5 9 9 20 9 11 0 20 4 20 9 0 5 8 8 18 7 9 -2 27
4 40 12 12 8 22 11 22 6 0 -4 5 -3 12 4 7 7 20 12 30 12 10 0 18 5 18 11 0 6
7 8 15 5 9 -3 18 1 22 9 3 9 13 14 22 13 9 -2 15 3 13 10 -1 8 2 11 8 7 6 -4
31 3 55 14 25 12 48 21 51 21 4 0 13 8 21 18 8 9 11 10 7 2 -5 -8 4 -5 20 8
16 12 35 22 42 22 8 0 14 4 14 9 0 8 31 24 50 26 3 0 16 10 30 23 13 12 28 22
33 22 6 0 25 11 43 25 19 14 37 26 41 26 19 2 63 42 57 51 -4 7 -2 8 4 4 7 -4
12 -2 12 3 0 6 6 11 14 11 8 0 22 10 31 23 8 12 19 22 23 22 4 0 6 3 5 7 -2 4
5 4 14 1 11 -4 14 -3 9 5 -4 7 -2 12 5 12 7 0 30 19 53 43 22 23 43 41 47 40
4 -2 11 6 14 17 4 11 11 17 17 14 8 -5 9 -1 5 10 -4 10 -3 15 3 11 13 -8 63
42 55 55 -3 5 0 7 9 4 9 -3 17 2 21 15 3 12 11 21 16 21 5 0 9 7 9 15 0 8 3
14 8 12 7 -2 52 39 52 48 0 3 8 14 18 24 31 35 47 55 47 61 0 3 11 17 23 30
26 27 47 69 43 85 -2 6 0 7 4 3 9 -8 35 16 35 31 0 6 4 11 10 11 5 0 6 7 3 17
-4 10 -2 14 5 9 6 -3 13 3 17 16 4 13 17 34 29 47 12 14 15 21 6 17 -8 -4 -6
0 4 8 11 9 16 16 12 16 -5 0 -3 6 3 13 6 8 9 17 6 20 -3 4 -2 5 1 2 7 -4 54
60 54 73 0 4 -5 0 -10 -8 -7 -10 -10 -11 -10 -2 0 7 7 15 15 18 8 4 12 10 9
15 -3 5 0 9 6 9 6 0 8 5 5 10 -3 6 -1 10 5 10 6 0 8 5 5 10 -3 6 -1 10 5 10 6
0 9 4 5 9 -3 5 0 13 6 16 5 4 8 13 5 21 -3 8 -2 14 3 14 11 0 32 50 26 61 -4
5 -2 9 3 9 5 0 13 10 17 23 4 12 9 29 12 37 2 8 5 23 6 32 1 9 5 14 9 12 4 -3
8 2 8 10 0 26 1 30 11 42 5 6 7 20 4 33 -2 12 0 19 5 16 5 -3 11 -1 15 5 3 5
1 10 -6 10 -8 0 -6 6 4 18 13 15 14 21 4 32 -9 10 -9 11 1 6 7 -5 13 0 14 11
1 18 4 33 8 43 6 16 12 49 13 73 1 15 6 27 11 27 5 0 6 3 3 6 -3 4 -2 16 4 27
9 15 8 18 -2 12 -8 -6 -10 -4 -4 5 4 7 9 23 11 34 2 12 6 37 9 56 4 19 8 46 9
60 2 14 7 40 11 59 5 26 4 32 -5 26 -9 -6 -11 -4 -4 6 4 8 9 25 11 39 8 101 8
120 -1 120 -7 0 -8 3 -1 8 14 10 17 65 3 56 -7 -5 -8 -2 -2 7 10 16 13 99 3
99 -10 0 -5 34 6 42 7 5 6 8 0 8 -6 0 -11 10 -12 23 -2 63 -12 167 -17 175 -3
5 -7 29 -10 53 -2 24 -9 64 -17 89 -7 25 -11 53 -10 64 1 10 -1 16 -6 13 -4
-3 -9 8 -10 24 -3 48 -6 59 -15 59 -5 0 -6 5 -3 10 3 6 3 16 -2 23 -4 6 -9 23
-11 37 -2 13 -7 27 -11 30 -4 3 -8 16 -8 29 -1 13 -8 28 -15 32 -7 4 -9 11 -6
15 4 4 2 16 -4 28 -7 11 -11 24 -10 29 1 4 -2 7 -8 7 -5 0 -7 7 -4 15 4 8 1
15 -7 15 -7 0 -9 3 -6 6 4 4 0 19 -8 33 -24 43 -75 159 -75 170 0 5 -5 13 -12
17 -7 5 -8 2 -3 -7 5 -8 4 -11 -1 -6 -5 5 -9 12 -10 15 -3 26 -18 62 -25 62
-5 0 -9 7 -9 15 0 8 -3 15 -8 15 -4 0 -13 14 -20 30 -8 17 -17 28 -22 25 -4
-3 -6 3 -3 14 3 11 -2 21 -11 24 -9 4 -16 13 -16 22 0 8 -4 15 -10 15 -5 0
-10 6 -10 14 0 8 -3 16 -7 18 -5 2 -24 26 -43 53 -32 46 -66 88 -97 121 -7 7
-13 18 -13 24 0 6 -4 8 -10 5 -5 -3 -10 -1 -10 4 0 9 -87 108 -128 145 -7 6
-39 36 -71 66 -96 90 -123 110 -134 103 -5 -3 -7 -1 -3 5 3 6 -7 19 -24 28
-16 10 -30 22 -30 26 0 4 -5 8 -11 8 -6 0 -17 7 -26 15 -8 8 -19 12 -25 9 -6
-4 -9 -3 -6 2 7 11 -86 77 -108 77 -8 0 -12 3 -9 5 5 6 -26 31 -38 32 -5 0 -5
-5 -1 -12 4 -7 3 -8 -5 -4 -6 4 -8 12 -5 18 5 8 1 9 -10 5 -10 -4 -15 -3 -11
3 6 10 -52 37 -68 32 -5 -1 -6 2 -3 7 7 11 -79 55 -106 54 -10 0 -16 3 -13 7
6 10 -75 41 -88 33 -6 -3 -7 -1 -3 5 6 11 -12 17 -36 13 -5 0 -8 3 -8 8 0 9
-48 26 -62 23 -5 -1 -8 3 -8 10 0 6 -3 9 -6 5 -4 -3 -18 0 -33 7 -14 7 -33 12
-41 11 -8 0 -18 3 -21 7 -3 5 -19 10 -36 11 -17 1 -29 5 -26 10 2 4 -10 7 -26
7 -18 0 -31 5 -31 12 0 9 -3 9 -12 0 -9 -9 -14 -7 -24 6 -10 12 -13 13 -14 3
0 -10 -3 -11 -14 -2 -8 6 -18 11 -22 10 -5 -1 -16 0 -24 4 -34 13 -46 14 -64
5 -12 -7 -16 -7 -12 0 3 5 -1 12 -9 16 -8 3 -15 0 -15 -7 0 -8 -3 -8 -9 2 -5
8 -16 11 -24 8 -9 -3 -18 -1 -21 6 -3 9 -5 8 -5 -1 -1 -10 -6 -10 -21 -2 -11
6 -20 8 -20 5 0 -3 -10 -1 -21 6 -17 9 -20 8 -14 -2 6 -8 4 -10 -6 -3 -8 4
-21 10 -29 11 -23 5 -368 12 -372 8z m-2129 -2895 c1 -35 0 -62 -3 -59 -5 4
-18 94 -20 132 0 9 -3 17 -7 17 -3 0 -4 12 -1 27 5 27 6 26 17 -12 6 -22 12
-69 14 -105z"/>
</g>
</svg>
